<svg width="40" height="35" viewBox="0 0 40 35" fill="none" xmlns="http://www.w3.org/2000/svg">
<path d="M37.5705 9.95289H34.35V3.9432C34.35 2.08633 32.8398 0.576096 30.9829 0.576096H3.38017C1.52408 0.576096 0.0130615 2.08633 0.0130615 3.9432V20.2558C0.0130615 22.1119 1.52408 23.6229 3.38017 23.6229H15.3713V24.981H13.0197C12.2583 24.981 11.6388 25.6005 11.6388 26.3619V27.0002C11.6388 27.7616 12.2583 28.381 13.0197 28.381H21.3434C22.1048 28.381 22.7242 27.7616 22.7242 27.0002V26.3619C22.7242 25.6005 22.1048 24.981 21.3434 24.981H18.9917V23.6229H27.9349V32.5982C27.9349 33.9227 29.0124 35.0001 30.3367 35.0001H37.5705C38.8957 35.0001 39.9731 33.9227 39.9731 32.5982V12.3547C39.9731 11.0302 38.8956 9.95289 37.5705 9.95289ZM21.3434 26.1572C21.4547 26.1572 21.5481 26.2505 21.5481 26.3619V27.0002C21.5481 27.1107 21.4548 27.2048 21.3434 27.2048H13.0197C12.9084 27.2048 12.815 27.1108 12.815 27.0002V26.3619C12.815 26.2505 12.9083 26.1572 13.0197 26.1572H21.3434ZM16.5475 24.981V23.6229H17.8155V24.981H16.5475ZM27.9349 12.3547V20.0699H3.89619C3.74173 20.0699 3.61548 19.9437 3.61548 19.7892V15.2835C3.61548 14.9589 3.35205 14.6954 3.02736 14.6954C2.70283 14.6954 2.43923 14.9588 2.43923 15.2835V19.7892C2.43923 20.5922 3.09244 21.2462 3.89619 21.2462H27.9349V22.4467H3.38025C2.17033 22.4467 1.18931 21.4658 1.18931 20.2558V3.9432C1.18931 2.73328 2.17025 1.75227 3.38025 1.75227H30.9828C32.1928 1.75227 33.1738 2.7332 33.1738 3.9432V9.95289H31.9246V4.56031C31.9246 3.75891 31.2691 3.10336 30.4677 3.10336H15.3392C14.7998 3.10336 14.5276 3.73047 14.9016 4.10703C15.0082 4.21367 15.1549 4.27953 15.3172 4.27953H30.4677C30.6221 4.27953 30.7484 4.40578 30.7484 4.56024V9.95281H30.3367C29.0099 9.95289 27.9349 11.0279 27.9349 12.3547ZM37.5705 33.8238H30.3367C29.6608 33.8238 29.1111 33.2741 29.1111 32.5981V30.5876H38.7969V32.5981C38.7969 33.2741 38.2464 33.8238 37.5705 33.8238ZM38.7969 15.5571H33.1828C32.8581 15.5571 32.5947 15.8204 32.5947 16.1452C32.5947 16.4701 32.858 16.7334 33.1828 16.7334H38.7969V29.4114H29.1111V16.7334H30.543C30.8678 16.7334 31.1311 16.4701 31.1311 16.1452C31.1311 15.8204 30.8678 15.5571 30.543 15.5571H29.1111V12.3547C29.1111 11.6778 29.6599 11.1291 30.3367 11.1291H37.5705C38.2478 11.1291 38.7969 11.6781 38.7969 12.3555V15.5571Z" fill="#006480"/>
</svg>
