<svg width="30" height="30" viewBox="0 0 30 30" fill="none" xmlns="http://www.w3.org/2000/svg">
<g clip-path="url(#clip0)">
<path d="M13.7496 28.7305C6.16863 28.7305 0 22.5621 0 14.9811C0 7.40008 6.16863 1.23145 13.7496 1.23145C16.3858 1.23145 18.9506 1.98261 21.1668 3.40507C21.6019 3.68521 21.7294 4.26518 21.4492 4.70141C21.1682 5.13765 20.5893 5.26376 20.1531 4.98385C18.2406 3.75502 16.0258 3.10639 13.7496 3.10639C7.20223 3.10639 1.87494 8.43367 1.87494 14.9811C1.87494 21.5283 7.20223 26.8556 13.7496 26.8556C20.2968 26.8556 25.6241 21.5283 25.6241 14.9811C25.6241 14.5897 25.6054 14.2022 25.5692 13.8212C25.5193 13.3048 25.8967 12.8473 26.4117 12.7974C26.9292 12.7498 27.3853 13.1249 27.4354 13.6399C27.4778 14.0812 27.4991 14.5286 27.4991 14.9811C27.4991 22.5621 21.3307 28.7305 13.7496 28.7305Z" fill="#006480"/>
<path d="M15.3106 18.1058C15.0708 18.1058 14.8307 18.0145 14.6483 17.8309L9.02343 12.2061C8.65723 11.8397 8.65723 11.246 9.02343 10.8798C9.38963 10.5136 9.98333 10.5136 10.3495 10.8798L15.312 15.8423L28.3977 2.75634C28.7641 2.39014 29.3578 2.39014 29.724 2.75634C30.0902 3.12254 30.0902 3.71624 29.724 4.08244L15.9744 17.8321C15.7906 18.0145 15.5507 18.1058 15.3106 18.1058Z" fill="#006480"/>
</g>
<defs>
<clipPath id="clip0">
<rect width="30" height="30" fill="white"/>
</clipPath>
</defs>
</svg>
