<svg width="40" height="40" viewBox="0 0 40 40" fill="none" xmlns="http://www.w3.org/2000/svg">
<g clip-path="url(#clip0)">
<path d="M7.15016 4.39554H7.1407C5.69391 4.41671 4.51719 5.61155 4.51719 7.05905V10.8653H0.58875C0.263594 10.8653 0 11.1289 0 11.4541C0 11.7792 0.263594 12.0428 0.58875 12.0428H4.51727V15.1383H0.58875C0.263594 15.1383 0 15.4019 0 15.727C0 16.0522 0.263594 16.3158 0.58875 16.3158H4.51727V19.4112H0.58875C0.263594 19.4112 0 19.6748 0 20C0 20.3251 0.263594 20.5887 0.58875 20.5887H4.51727V23.6841H0.58875C0.263594 23.6841 0 23.9477 0 24.2729C0 24.598 0.263594 24.8616 0.58875 24.8616H4.51727V27.9571H0.58875C0.263594 27.9571 0 28.2207 0 28.5459C0 28.871 0.263594 29.1346 0.58875 29.1346H4.51727V31.1479C4.51727 31.4729 4.78102 31.7366 5.10602 31.7366C5.43102 31.7366 5.69477 31.4729 5.69477 31.1479V7.05913C5.69477 6.25132 6.35102 5.58491 7.15883 5.57233C7.48383 5.56765 7.74367 5.30069 7.7382 4.97491C7.73344 4.65304 7.47125 4.39554 7.15016 4.39554Z" fill="#006480"/>
<path d="M32.0443 34.1835H7.1815C6.5747 34.1835 6.03462 33.8209 5.80462 33.2595C5.68134 32.9581 5.3383 32.8145 5.03689 32.9377C4.7354 33.0609 4.59181 33.4048 4.71501 33.7054C5.12634 34.711 6.09431 35.3609 7.1815 35.3609H10.8653V39.4111C10.8653 39.7363 11.1289 39.9998 11.4541 39.9998C11.7792 39.9998 12.0428 39.7363 12.0428 39.4111V35.3609H15.1383V39.4111C15.1383 39.7363 15.4019 39.9998 15.727 39.9998C16.0522 39.9998 16.3158 39.7363 16.3158 39.4111V35.3609H19.4112V39.4111C19.4112 39.7363 19.6748 39.9998 19.9999 39.9998C20.3251 39.9998 20.5887 39.7363 20.5887 39.4111V35.3609H23.6841V39.4111C23.6841 39.7363 23.9477 39.9998 24.2728 39.9998C24.598 39.9998 24.8616 39.7363 24.8616 39.4111V35.3609H27.957V39.4111C27.957 39.7363 28.2206 39.9998 28.5458 39.9998C28.871 39.9998 29.1345 39.7363 29.1345 39.4111V35.3609H32.0443C32.3693 35.3609 32.6331 35.0972 32.6331 34.7722C32.6331 34.4466 32.3693 34.1835 32.0443 34.1835Z" fill="#006480"/>
<path d="M27.985 10.0108H12.0148C10.977 10.0108 10.1332 10.8547 10.1332 11.8924V27.8634C10.1332 28.9012 10.9771 29.7451 12.0148 29.7451H27.9851C29.0229 29.7451 29.8667 28.9012 29.8667 27.8634V11.8924C29.8667 10.8546 29.0228 10.0108 27.985 10.0108ZM11.3106 11.8924C11.3106 11.5038 11.6261 11.1883 12.0147 11.1883H24.1933V17.3373C23.1289 17.5673 22.2881 18.408 22.0582 19.4725H17.7194V16.4534C18.8318 16.2359 19.6733 15.2538 19.6733 14.0787C19.6733 12.7449 18.5876 11.6593 17.2532 11.6593C16.078 11.6593 15.0961 12.5008 14.8785 13.6123H11.3106V11.8924ZM24.7822 18.4519C25.6692 18.4519 26.3907 19.1741 26.3907 20.0612C26.3907 20.9484 25.6693 21.6698 24.7822 21.6698C23.8887 21.6698 23.1729 20.9412 23.1729 20.0612C23.1729 19.1796 23.8908 18.4519 24.7822 18.4519ZM17.2532 15.3213C16.5723 15.3213 16.0105 14.7676 16.0105 14.0787C16.0105 13.3941 16.5679 12.8368 17.2532 12.8368C17.9385 12.8368 18.4958 13.3941 18.4958 14.0787C18.4958 14.7699 17.933 15.3213 17.2532 15.3213ZM14.7105 24.944C14.369 24.7524 14.1383 24.3859 14.1383 23.9674C14.1383 23.3496 14.6415 22.8472 15.2593 22.8472C15.8771 22.8472 16.3795 23.3496 16.3795 23.9674C16.3794 24.8235 15.4535 25.364 14.7105 24.944ZM19.4722 28.5676H15.5222V26.2502C16.666 26.1199 17.557 25.1457 17.557 23.9674C17.557 22.7004 16.5263 21.6697 15.2593 21.6697C13.9915 21.6697 12.9608 22.7004 12.9608 23.9674C12.9608 24.9094 13.5307 25.7219 14.3447 26.0759V28.5676H12.0148C11.6262 28.5676 11.3107 28.2512 11.3107 27.8634V14.7898H14.9397C14.9447 14.798 15.2611 15.9985 16.5419 16.3921V20.0612C16.5419 20.3862 16.8057 20.65 17.1307 20.65H19.4722V28.5676ZM28.6892 27.8634C28.6892 28.2512 28.3736 28.5676 27.9851 28.5676H20.6497V26.0215H28.6892V27.8634ZM28.6892 24.844H20.6497V20.65H22.0582C22.329 21.9044 23.4476 22.8473 24.7822 22.8473C26.3184 22.8473 27.5682 21.5975 27.5682 20.0612C27.5682 18.7267 26.6254 17.6081 25.3709 17.3373C25.3709 17.3373 25.3708 17.3373 25.3708 17.3373V11.1883H27.985C28.3736 11.1883 28.6891 11.5038 28.6891 11.8924V24.844H28.6892Z" fill="#006480"/>
<path d="M39.4113 16.3159C39.7364 16.3159 40 16.0523 40 15.7271C40 15.402 39.7364 15.1384 39.4113 15.1384H35.4828V12.0429H39.4113C39.7364 12.0429 40 11.7793 40 11.4541C40 11.129 39.7364 10.8654 39.4113 10.8654H35.4828V7.05914C35.4828 5.59039 34.288 4.39484 32.8185 4.39484H29.1346V0.58875C29.1346 0.263594 28.871 0 28.5459 0C28.2207 0 27.9571 0.263594 27.9571 0.58875V4.39477H24.8617V0.58875C24.8617 0.263594 24.5981 0 24.2729 0C23.9478 0 23.6842 0.263594 23.6842 0.58875V4.39477H20.5888V0.58875C20.5888 0.263594 20.3252 0 20 0C19.6749 0 19.4113 0.263594 19.4113 0.58875V4.39477H16.3159V0.58875C16.3159 0.263594 16.0523 0 15.7271 0C15.402 0 15.1384 0.263594 15.1384 0.58875V4.39477H12.0429V0.58875C12.0429 0.263594 11.7793 0 11.4542 0C11.129 0 10.8654 0.263594 10.8654 0.58875V4.39477H9.50525C9.17947 4.39477 8.9165 4.65852 8.9165 4.98352C8.9165 5.30852 9.17947 5.57227 9.50525 5.57227C12.5894 5.57227 30.3502 5.57227 32.8185 5.57227C33.6388 5.57227 34.3053 6.23953 34.3053 7.05906V32.6967C34.3053 33.1073 34.142 33.4896 33.8445 33.773C33.609 33.9975 33.5996 34.3704 33.8241 34.6051C33.9403 34.7267 34.0949 34.788 34.2503 34.788C34.3963 34.788 34.5424 34.7338 34.657 34.6255C35.1892 34.1176 35.4828 33.4323 35.4828 32.6967V29.1346H39.4113C39.7365 29.1346 40.0001 28.871 40.0001 28.5459C40.0001 28.2207 39.7365 27.9571 39.4113 27.9571H35.4828V24.8616H39.4113C39.7365 24.8616 40.0001 24.598 40.0001 24.2729C40.0001 23.9477 39.7365 23.6841 39.4113 23.6841H35.4828V20.5888H39.4113C39.7365 20.5888 40.0001 20.3252 40.0001 20C40.0001 19.6748 39.7365 19.4113 39.4113 19.4113H35.4828V16.3159H39.4113Z" fill="#006480"/>
</g>
<defs>
<clipPath id="clip0">
<rect width="40" height="40" fill="white"/>
</clipPath>
</defs>
</svg>
