<svg width="60" height="44" viewBox="0 0 60 44" fill="none" xmlns="http://www.w3.org/2000/svg">
<path d="M48.6691 24.2458L43.8519 29.0632C43.789 28.987 43.7223 28.9129 43.651 28.8416L37.4296 22.6202C37.0855 22.2763 36.528 22.2763 36.1841 22.6202C35.8401 22.9642 35.8401 23.5218 36.1841 23.8656L42.4055 30.087C42.9403 30.6218 42.9403 31.492 42.4056 32.0267C41.8705 32.5615 41.0004 32.5616 40.4657 32.0267L37.0086 28.5696C36.6646 28.2257 36.1071 28.2257 35.7631 28.5696C35.4192 28.9136 35.4192 29.4712 35.7631 29.815L39.2202 33.2721C39.2203 33.2723 39.2206 33.2724 39.2207 33.2726C39.4795 33.5316 39.622 33.8758 39.622 34.2421C39.622 34.6084 39.4794 34.9528 39.2202 35.212C38.9612 35.471 38.6168 35.6137 38.2504 35.6137C37.884 35.6137 37.5396 35.471 37.2806 35.212L33.8235 31.7549C33.4794 31.411 32.9219 31.411 32.578 31.7549C32.234 32.0988 32.234 32.6565 32.578 33.0003L36.0351 36.4574C36.5699 36.9921 36.5699 37.8624 36.0352 38.3971C35.776 38.6563 35.4315 38.799 35.0651 38.799C34.6988 38.799 34.3544 38.6563 34.0953 38.3972L30.6382 34.9402C30.2942 34.5962 29.7367 34.5962 29.3927 34.9402C29.0488 35.2841 29.0488 35.8417 29.3927 36.1856L32.8498 39.6426C33.3847 40.1774 33.3847 41.0476 32.8498 41.5824C32.5908 41.8414 32.2464 41.9841 31.88 41.9841C31.5136 41.9841 31.1692 41.8414 30.9102 41.5824L28.6706 39.3427C29.3842 38.1536 29.2294 36.5849 28.2053 35.561L28.1523 35.5079C27.47 34.8257 26.5458 34.5294 25.6531 34.6185C25.603 33.8715 25.2889 33.1758 24.7543 32.6413C24.3409 32.2279 23.8385 31.9562 23.3083 31.8261C23.4434 31.4753 23.5149 31.0992 23.5149 30.7121C23.5149 29.8851 23.1929 29.1078 22.6083 28.5231C22.0236 27.9385 21.2463 27.6165 20.4194 27.6165C19.9482 27.6165 19.4933 27.7214 19.0807 27.9196C18.9419 27.4266 18.6797 26.9615 18.2926 26.5744C17.0858 25.3675 15.1219 25.3676 13.9149 26.5744L13.5517 26.9376L13.2869 26.6728C12.861 26.2469 12.6265 25.6808 12.6265 25.0785V22.7817C12.6265 22.5481 12.5337 22.3241 12.3686 22.159L8.60895 18.3993L9.66612 17.342C10.0101 16.9981 10.0101 16.4404 9.66601 16.0966C9.32219 15.7525 8.76454 15.7527 8.4206 16.0966L7.00446 17.5128C6.73744 17.7799 6.30274 17.78 6.03571 17.5128L1.50372 12.9807C1.15978 12.6368 0.60225 12.6368 0.258196 12.9807C-0.0857399 13.3247 -0.0857399 13.8822 0.258196 14.2261L4.79031 18.7582C5.26729 19.2351 5.89363 19.4735 6.51997 19.4735C6.72053 19.4735 6.92051 19.4462 7.11613 19.3974L10.8651 23.1463V25.0784C10.8651 26.1511 11.2829 27.1595 12.0414 27.9181L12.3063 28.183L12.0116 28.4777C11.4269 29.0624 11.1048 29.8397 11.1048 30.6666C11.1048 31.4935 11.4268 32.2709 12.0114 32.8554C12.615 33.4588 13.4077 33.7606 14.2005 33.7606C14.213 33.7606 14.2256 33.7599 14.2382 33.7597C14.238 33.7727 14.2372 33.7856 14.2372 33.7988C14.2372 34.6257 14.5592 35.403 15.1439 35.9876C15.7285 36.5722 16.506 36.8942 17.3328 36.8942C17.3458 36.8942 17.3588 36.8934 17.3719 36.8933C17.3621 37.6985 17.6631 38.5068 18.276 39.1198C18.8796 39.7232 19.6723 40.025 20.4651 40.025C20.4781 40.025 20.4911 40.0242 20.504 40.024C20.4939 40.8297 20.7949 41.6386 21.4083 42.2521L21.4614 42.3051C22.0461 42.8898 22.8234 43.2118 23.6502 43.2118C24.4771 43.2118 25.2544 42.8898 25.8391 42.3051L27.4907 40.6537L29.6649 42.8279C30.2566 43.4197 31.0434 43.7456 31.8802 43.7456C32.7171 43.7456 33.5039 43.4197 34.0956 42.8279C34.7199 42.2036 35.0243 41.3791 35.0104 40.559C35.0287 40.5594 35.0469 40.5603 35.0654 40.5603C35.9023 40.5603 36.689 40.2345 37.2808 39.6426C37.9055 39.018 38.2099 38.1928 38.1957 37.3724C38.214 37.3727 38.2323 37.3737 38.2506 37.3737C39.0528 37.3735 39.8552 37.0681 40.4658 36.4575C41.0577 35.8658 41.3835 35.0791 41.3835 34.2422C41.3835 34.2237 41.3825 34.2055 41.3822 34.1872C41.4001 34.1876 41.4179 34.1885 41.4358 34.1885C42.238 34.1885 43.0404 33.8831 43.6512 33.2724C44.3154 32.6082 44.6175 31.7177 44.5595 30.847L49.915 25.4915C50.2589 25.1475 50.2589 24.5899 49.915 24.2461C49.5707 23.9019 49.0132 23.9019 48.6691 24.2458ZM13.2568 31.6099C13.0049 31.3579 12.8662 31.0229 12.8662 30.6666C12.8662 30.3102 13.005 29.9752 13.257 29.7232L15.1603 27.8199C15.4205 27.5598 15.7621 27.4297 16.1038 27.4297C16.4454 27.4297 16.787 27.5597 17.0471 27.8198C17.5673 28.3401 17.5673 29.1865 17.0471 29.7065L15.1436 31.61C14.6234 32.1302 13.7772 32.1301 13.2568 31.6099ZM17.3325 35.133C16.9763 35.133 16.6411 34.9942 16.3891 34.7422C16.1371 34.4902 15.9985 34.1552 15.9985 33.7989C15.9985 33.4426 16.1373 33.1075 16.3893 32.8555L18.2927 30.9521L19.4761 29.7687C19.7281 29.5167 20.063 29.3779 20.4194 29.3779C20.7758 29.3779 21.1108 29.5167 21.3627 29.7687C21.6146 30.0207 21.7534 30.3558 21.7534 30.7121C21.7534 31.0683 21.6146 31.4034 21.3627 31.6554L18.2758 34.7423C18.0238 34.9942 17.6889 35.133 17.3325 35.133ZM19.5213 37.8744C19.0011 37.3542 19.0011 36.5078 19.5213 35.9876L21.6222 33.8866C21.8823 33.6266 22.2238 33.4967 22.5655 33.4967C22.9071 33.4967 23.2488 33.6268 23.5088 33.8867C23.7608 34.1387 23.8996 34.4739 23.8996 34.8301C23.8996 35.1863 23.761 35.5211 23.5093 35.7729L21.408 37.8742C20.8879 38.3945 20.0415 38.3945 19.5213 37.8744ZM24.5932 41.0596C24.3412 41.3116 24.0063 41.4504 23.65 41.4504C23.2937 41.4504 22.9586 41.3116 22.7067 41.0596L22.6537 41.0066C22.1334 40.4865 22.1334 39.6401 22.6537 39.1199L24.7545 37.0192C24.7552 37.0184 24.7558 37.0177 24.7563 37.0172L25.02 36.7534C25.2802 36.4933 25.6218 36.3633 25.9635 36.3633C26.305 36.3633 26.6468 36.4934 26.9067 36.7534L26.9597 36.8064C27.48 37.3266 27.48 38.173 26.9597 38.6932L24.5932 41.0596Z" fill="#006480"/>
<path d="M59.7422 16.6915C59.3983 16.3476 58.8407 16.3474 58.4967 16.6915L55.1964 19.9918C55.1509 20.0373 55.0761 20.038 55.0297 19.9937L43.3622 8.84861C43.3381 8.82559 43.3257 8.79706 43.3253 8.76371C43.325 8.73036 43.3368 8.70147 43.3603 8.67799L50.2805 1.75793C50.6244 1.414 50.6244 0.856348 50.2805 0.51253C49.9366 0.168594 49.379 0.168594 49.035 0.51253L42.1148 7.43258C41.7538 7.79366 41.5583 8.27358 41.5642 8.78402C41.569 9.19548 41.7062 9.58286 41.9517 9.90284L38.7848 13.0086L35.8009 11.3445C35.4109 11.1269 34.9688 11.0119 34.5223 11.0119H26.0442L25.399 10.3668C24.7994 9.76722 24.0937 9.3102 23.3014 9.0083L20.9545 8.11412L19.8699 7.02959C20.4307 6.09031 20.31 4.8543 19.502 4.04642L15.9681 0.51253C15.6242 0.168594 15.0667 0.168594 14.7226 0.51253C14.3787 0.856466 14.3787 1.41411 14.7226 1.75793L18.2565 5.29182C18.5235 5.55884 18.5235 5.99343 18.2565 6.26057L11.0745 13.4426C10.7305 13.7865 10.7305 14.3442 11.0745 14.688C11.2465 14.8599 11.472 14.946 11.6973 14.946C11.9226 14.946 12.1481 14.86 12.3201 14.688L18.6788 8.32936L19.8421 9.49268C19.9299 9.58051 20.0354 9.64874 20.1514 9.693L22.6744 10.6542C23.2187 10.8617 23.7046 11.1738 24.1203 11.5808C24.0669 11.6258 24.0144 11.6723 23.9644 11.7223L20.615 15.072C19.9502 15.7366 19.5842 16.6205 19.5842 17.5604C19.5842 18.5004 19.9502 19.3842 20.6149 20.0489C21.3017 20.7357 22.2001 21.0841 23.1025 21.0841C23.8911 21.0841 24.6827 20.8179 25.3383 20.2789L27.873 18.1951H30.5133L33.5301 21.212C33.7022 21.3839 33.9276 21.47 34.153 21.47C34.3783 21.47 34.6038 21.384 34.7758 21.212C35.1197 20.8681 35.1197 20.3104 34.7758 19.9666L32.5963 17.7871C32.6835 17.6504 32.7347 17.4886 32.7347 17.3144C32.7347 16.8281 32.3405 16.4338 31.854 16.4338H27.5573C27.3534 16.4338 27.1556 16.5046 26.9981 16.6342L24.2197 18.9183C23.5171 19.4957 22.5032 19.4463 21.8604 18.8035C21.5283 18.4714 21.3455 18.03 21.3455 17.5606C21.3455 17.0911 21.5283 16.6496 21.8604 16.3176L25.2099 12.968C25.3352 12.8426 25.5019 12.7735 25.6793 12.7735H34.5221C34.669 12.7735 34.8144 12.8113 34.9428 12.883L38.2428 14.7235C38.7327 14.9969 39.3557 14.9142 39.7584 14.5206L43.208 11.1374L52.7054 20.2095L51.3229 21.5921C50.9789 21.936 50.9789 22.4937 51.323 22.8375C51.4949 23.0095 51.7204 23.0955 51.9457 23.0955C52.171 23.0955 52.3965 23.0095 52.5685 22.8375L53.9909 21.4151C54.3215 21.6602 54.7162 21.7838 55.1116 21.7838C55.5949 21.7838 56.078 21.6012 56.4418 21.2374L59.7422 17.9371C60.086 17.593 60.086 17.0354 59.7422 16.6915Z" fill="#006480"/>
</svg>
