<svg width="40" height="40" viewBox="0 0 40 40" fill="none" xmlns="http://www.w3.org/2000/svg">
<g clip-path="url(#clip0)">
<path d="M12.2817 25.4688C10.6663 25.4688 9.35205 26.783 9.35205 28.3984C9.35205 30.0139 10.6663 31.3281 12.2817 31.3281C13.8972 31.3281 15.2114 30.0139 15.2114 28.3984C15.2114 26.783 13.8971 25.4688 12.2817 25.4688ZM12.2817 30.1562C11.3124 30.1562 10.5239 29.3677 10.5239 28.3984C10.5239 27.4292 11.3124 26.6406 12.2817 26.6406C13.251 26.6406 14.0396 27.4292 14.0396 28.3984C14.0396 29.3677 13.251 30.1562 12.2817 30.1562Z" fill="#006480"/>
<path d="M32.3828 25.4688C30.7673 25.4688 29.4531 26.783 29.4531 28.3984C29.4531 30.0139 30.7673 31.3281 32.3828 31.3281C33.9983 31.3281 35.3125 30.0139 35.3125 28.3984C35.3125 26.783 33.9983 25.4688 32.3828 25.4688ZM32.3828 30.1562C31.4135 30.1562 30.625 29.3677 30.625 28.3984C30.625 27.4292 31.4135 26.6406 32.3828 26.6406C33.3521 26.6406 34.1406 27.4292 34.1406 28.3984C34.1406 29.3677 33.3521 30.1562 32.3828 30.1562Z" fill="#006480"/>
<path d="M37.9921 19.1066L32.8105 17.389L30.1417 9.08617C30.1411 9.08406 30.1403 9.08195 30.1397 9.07977L29.9088 8.36125C29.5179 7.14516 28.397 6.32812 27.1196 6.32812H6.44531C4.82984 6.32812 3.51562 7.64234 3.51562 9.25781V15.8231C3.17062 15.623 2.77047 15.5078 2.34375 15.5078C1.05141 15.5078 0 16.5592 0 17.8516V23.7109C0 25.0033 1.05141 26.0547 2.34375 26.0547C2.77047 26.0547 3.17062 25.9395 3.51562 25.7394V28.3984C3.51562 28.7221 3.77797 28.9844 4.10156 28.9844H7.04164C7.33414 31.6173 9.57211 33.6719 12.2817 33.6719C14.9913 33.6719 17.2293 31.6173 17.5218 28.9844H27.1427C27.4352 31.6173 29.6731 33.6719 32.3827 33.6719C35.0923 33.6719 37.3303 31.6173 37.6228 28.9844H39.4141C39.7377 28.9844 40 28.7221 40 28.3984V21.8876C40 20.6223 39.193 19.5048 37.9921 19.1066ZM6.44531 7.5H27.1196C27.8688 7.5 28.5273 7.96922 28.7755 8.67188H8.78906C8.46547 8.67188 8.20312 8.93414 8.20312 9.25781C8.20312 9.58148 8.46547 9.84375 8.78906 9.84375H29.1544L31.7859 18.0309C31.8431 18.2088 31.9819 18.3489 32.1594 18.4077L37.6234 20.2191C38.344 20.4579 38.8281 21.1284 38.8281 21.8876V23.125H32.3828C30.5584 23.125 28.9477 24.0566 28.0005 25.4688H16.6641C15.7169 24.0566 14.1062 23.125 12.2817 23.125H4.6875V9.84375H6.44531C6.76891 9.84375 7.03125 9.58148 7.03125 9.25781C7.03125 8.93414 6.76891 8.67188 6.44531 8.67188H4.78828C5.03016 7.98992 5.68148 7.5 6.44531 7.5ZM17.2528 26.6406H27.4117C27.2793 27.0139 27.1878 27.4062 27.1427 27.8125H17.5219C17.4767 27.4062 17.3852 27.0139 17.2528 26.6406ZM2.34375 24.8828C1.69758 24.8828 1.17188 24.3571 1.17188 23.7109V17.8516C1.17188 17.2054 1.69758 16.6797 2.34375 16.6797C2.98992 16.6797 3.51562 17.2054 3.51562 17.8516V23.7109C3.51562 24.3571 2.98992 24.8828 2.34375 24.8828ZM4.6875 24.2969H8.97234C7.91883 25.1486 7.19898 26.3966 7.04172 27.8125H4.6875V24.2969ZM12.2818 32.5C10.0202 32.5 8.18023 30.66 8.18023 28.3984C8.18023 26.1369 10.0202 24.2969 12.2818 24.2969C14.5434 24.2969 16.3834 26.1369 16.3834 28.3984C16.3834 30.66 14.5434 32.5 12.2818 32.5ZM32.3828 32.5C30.1212 32.5 28.2812 30.66 28.2812 28.3984C28.2812 26.1369 30.1212 24.2969 32.3828 24.2969C34.6445 24.2969 36.4844 26.1369 36.4844 28.3984C36.4844 30.66 34.6445 32.5 32.3828 32.5ZM37.6229 27.8125C37.4656 26.3966 36.7458 25.1486 35.6923 24.2969H38.8281V27.8125H37.6229Z" fill="#006480"/>
<path d="M5.85938 11.6016V17.8516C5.85938 18.1752 6.12172 18.4375 6.44531 18.4375H19.313C19.6366 18.4375 19.899 18.1752 19.899 17.8516V11.6016C19.899 11.2779 19.6366 11.0156 19.313 11.0156H6.44531C6.12172 11.0156 5.85938 11.2779 5.85938 11.6016ZM7.03125 12.1875H18.7271V17.2656H7.03125V12.1875Z" fill="#006480"/>
<path d="M21.6568 18.4375H29.882C30.0692 18.4375 30.2452 18.348 30.3555 18.1967C30.4658 18.0455 30.4971 17.8505 30.4399 17.6723L28.431 11.4223C28.3531 11.1799 28.1277 11.0156 27.8731 11.0156H21.657C21.3334 11.0156 21.071 11.2779 21.071 11.6016V17.8516C21.0709 18.1752 21.3332 18.4375 21.6568 18.4375ZM22.2428 12.1875H27.4459L29.0781 17.2656H22.2428V12.1875Z" fill="#006480"/>
</g>
<defs>
<clipPath id="clip0">
<rect width="40" height="40" fill="white"/>
</clipPath>
</defs>
</svg>
