<svg width="40" height="40" viewBox="0 0 40 40" fill="none" xmlns="http://www.w3.org/2000/svg">
<g clip-path="url(#clip0)">
<path d="M38.093 23.4294H37.4944V18.0376C37.4944 17.1841 37.0695 16.4283 36.4207 15.9691V15.2349C36.4207 14.17 35.5544 13.3037 34.4894 13.3037H34.0425L35.7526 10.7943C36.3258 9.95319 36.1078 8.80249 35.2667 8.22921L23.6627 0.321396C23.2553 0.0436618 22.7642 -0.0588383 22.2795 0.0331149C21.7951 0.124912 21.3753 0.399834 21.0976 0.807334L11.0819 15.5044H8.29483L8.96725 8.69741C8.97483 8.6207 9.02467 8.55421 9.0942 8.52804C9.96053 8.2014 10.7113 7.5914 11.2082 6.81046C11.2473 6.74898 11.3212 6.71382 11.3976 6.72155L15.769 7.15343C16.0825 7.18382 16.3613 6.95554 16.3923 6.64226C16.4232 6.32898 16.1944 6.04999 15.8811 6.01905L11.5096 5.58718C11.0022 5.53749 10.5183 5.77132 10.2464 6.19851C9.88108 6.77273 9.32905 7.22116 8.69209 7.46132C8.21264 7.6421 7.88342 8.07273 7.8328 8.5853L7.14936 15.5044H6.42256L7.486 4.73843C7.52428 4.35093 7.87014 4.06624 8.25811 4.10507L17.092 4.97773C17.4053 5.00796 17.6843 4.77983 17.7152 4.46655C17.7462 4.15327 17.5173 3.87429 17.204 3.84335L8.37014 2.97069C7.35733 2.87077 6.45163 3.61335 6.35155 4.62632L5.49436 13.3037H4.0346C2.96975 13.3037 2.10334 14.17 2.10334 15.2349V15.7357C1.23217 16.1368 0.62561 17.0174 0.62561 18.0376V37.4669C0.62561 38.8638 1.76202 40.0002 3.15897 40.0002H34.9611C36.358 40.0002 37.4944 38.8638 37.4944 37.4669V32.0752H38.093C38.7995 32.0752 39.3743 31.5005 39.3743 30.794V24.7108C39.3744 24.0042 38.7995 23.4294 38.093 23.4294ZM34.4894 14.4437C34.9258 14.4436 35.2808 14.7986 35.2808 15.235V15.5254C35.1759 15.5121 35.0694 15.5045 34.9611 15.5045H32.5427L33.2656 14.4437H34.4894ZM22.0396 1.44921C22.1458 1.29335 22.3064 1.18819 22.4917 1.15304C22.536 1.14468 22.5805 1.14046 22.6246 1.14046C22.765 1.14046 22.9022 1.18249 23.0208 1.26327L34.6248 9.17109C34.9465 9.39038 35.0299 9.83054 34.8107 10.1523L31.1633 15.5043H30.288L32.0762 12.8803C32.3662 12.4548 32.3901 11.9132 32.1384 11.4669C31.8039 10.8739 31.6683 10.1757 31.7565 9.50077C31.8222 8.99866 31.6012 8.50851 31.18 8.22148L25.1645 4.1221C24.7432 3.83499 24.2062 3.80866 23.7629 4.05343C23.1672 4.38233 22.4677 4.51148 21.7935 4.4171C21.2935 4.34694 20.7864 4.57273 20.5007 4.99187L13.3367 15.5044H12.4614L22.0396 1.44921ZM22.2906 11.1282C19.8085 11.1282 17.771 13.0636 17.605 15.5044H14.716L21.4425 5.63382C21.4426 5.63382 21.4426 5.63382 21.4426 5.63382C21.4808 5.57765 21.5441 5.54421 21.6092 5.54421C21.6179 5.54421 21.6265 5.54484 21.6352 5.54601C22.5523 5.67429 23.5034 5.49882 24.3137 5.0514C24.3775 5.01608 24.4594 5.02116 24.5225 5.06413L30.538 9.16359C30.601 9.20655 30.6356 9.28093 30.6262 9.35312C30.5062 10.271 30.6907 11.2205 31.1456 12.0269C31.1821 12.0917 31.1776 12.1747 31.1344 12.2384L28.9087 15.5043H26.9765C26.8103 13.0636 24.7729 11.1282 22.2906 11.1282ZM25.8334 15.5044H18.7479C18.9112 13.6928 20.4373 12.2682 22.2906 12.2682C24.144 12.2681 25.6702 13.6928 25.8334 15.5044ZM3.24327 15.2349C3.24327 14.7985 3.59819 14.4435 4.0346 14.4435H5.38178L5.27702 15.5044H3.24327V15.2349ZM1.76553 18.0376C1.76553 17.2694 2.39061 16.6443 3.15897 16.6443H34.9611C35.7294 16.6443 36.3544 17.2694 36.3544 18.0376V19.6192H1.76553V18.0376ZM36.3544 37.4669C36.3544 38.2352 35.7294 38.8603 34.9611 38.8603H3.15897C2.39061 38.8603 1.76553 38.2352 1.76553 37.4669V35.8854H4.83913C5.15397 35.8854 5.40905 35.6302 5.40905 35.3155C5.40905 35.0007 5.15389 34.7455 4.83913 34.7455H1.76553V20.7591H36.3544V23.4294H30.9352H30.9351C29.2276 23.4294 27.7486 24.4248 27.0466 25.8655C27.0443 25.8703 27.0416 25.875 27.0392 25.8798C27.0333 25.8921 27.0281 25.9048 27.0223 25.9172C26.9387 26.0948 26.8661 26.2786 26.8069 26.4683C26.8068 26.4688 26.8066 26.4693 26.8065 26.4698C26.6803 26.8752 26.6123 27.3059 26.6123 27.7523C26.6123 30.136 28.5515 32.0752 30.9351 32.0752H30.9351H36.3544V34.7455H8.48866C8.17381 34.7455 7.91874 35.0007 7.91874 35.3155C7.91874 35.6302 8.17389 35.8854 8.48866 35.8854H36.3544V37.4669ZM38.2344 30.7939C38.2344 30.8719 38.171 30.9353 38.093 30.9353H30.9353C29.7287 30.9353 28.6766 30.2604 28.137 29.2683C28.1125 29.2232 28.089 29.1774 28.0666 29.1311C28.0219 29.0384 27.9815 28.9431 27.9458 28.8456C27.8206 28.5045 27.7523 28.1362 27.7523 27.7523C27.7523 27.3684 27.8207 27.0002 27.9458 26.6591C27.9815 26.5616 28.0219 26.4664 28.0666 26.3736C28.089 26.3273 28.1125 26.2815 28.137 26.2364C28.6766 25.2443 29.7287 24.5694 30.9353 24.5694H38.093C38.1709 24.5694 38.2344 24.6328 38.2344 24.7108V30.7939Z" fill="#006480"/>
<path d="M31.0687 25.4396C29.7936 25.4396 28.7562 26.477 28.7562 27.7521C28.7562 29.0272 29.7936 30.0645 31.0687 30.0645C32.3439 30.0645 33.3812 29.0272 33.3812 27.7521C33.3812 26.477 32.3439 25.4396 31.0687 25.4396ZM31.0687 28.9246C30.4222 28.9246 29.8961 28.3986 29.8961 27.7521C29.8961 27.1056 30.4222 26.5795 31.0687 26.5795C31.7153 26.5795 32.2413 27.1055 32.2413 27.7521C32.2413 28.3987 31.7153 28.9246 31.0687 28.9246Z" fill="#006480"/>
</g>
<defs>
<clipPath id="clip0">
<rect width="40" height="40" fill="white"/>
</clipPath>
</defs>
</svg>
