<svg width="60" height="60" viewBox="0 0 60 60" fill="none" xmlns="http://www.w3.org/2000/svg">
<g clip-path="url(#clip0)">
<path d="M59.1208 35.0976C59.6063 35.0976 59.9997 34.7042 59.9997 34.2187V8.87753C59.9997 8.46515 59.8245 8.06976 59.519 7.79297C59.2263 7.52777 58.8357 7.39301 58.4443 7.41656H1.55581C1.16218 7.39278 0.773591 7.52777 0.480976 7.79297C0.175589 8.06976 0.000278117 8.46515 0.000278117 8.87753V43.2097C-0.0165967 44.0311 0.737029 44.7383 1.55569 44.6707H26.1328V46.5567L14.6059 47.7917C13.5613 47.9035 12.7736 48.7802 12.7736 49.8308V50.5355C12.7736 51.6663 13.6936 52.5863 14.8243 52.5863H36.5624C37.0479 52.5863 37.4413 52.1929 37.4413 51.7074C37.4413 51.2219 37.0479 50.8285 36.5624 50.8285H14.8243C14.6628 50.8285 14.5314 50.6971 14.5314 50.5355V49.8308C14.5314 49.6807 14.6439 49.5554 14.7931 49.5394L27.1559 48.2148C29.0821 48.0085 31.0352 48.0085 32.9612 48.2148L45.3242 49.5394C45.4733 49.5555 45.5858 49.6807 45.5858 49.8308V50.5355C45.5858 50.6971 45.4544 50.8285 45.2928 50.8285H40.6639C40.1784 50.8285 39.785 51.2219 39.785 51.7074C39.785 52.1929 40.1784 52.5863 40.6639 52.5863H45.2928C46.4235 52.5863 47.3436 51.6663 47.3436 50.5355V49.8308C47.3436 48.7801 46.5558 47.9035 45.5112 47.7917L33.9843 46.5567V44.6707H58.4443C59.2605 44.7394 60.0177 44.0305 59.9997 43.2097V38.3203C59.9997 37.8347 59.6063 37.4414 59.1208 37.4414C58.6353 37.4414 58.2419 37.8347 58.2419 38.3203V42.9128H1.75807V9.17436H58.2419V34.2187C58.2419 34.7041 58.6354 35.0976 59.1208 35.0976ZM32.2265 46.3849C30.7844 46.277 29.3327 46.277 27.8906 46.3849V44.6707H32.2265V46.3849Z" fill="#006480"/>
<path d="M4.39477 20.4494C3.90926 20.4494 3.51587 20.8428 3.51587 21.3283V39.9936C3.51587 40.4791 3.90926 40.8725 4.39477 40.8725H55.6052C56.0907 40.8725 56.4841 40.4791 56.4841 39.9936V12.0937C56.4841 11.6082 56.0907 11.2148 55.6052 11.2148H4.39477C3.90926 11.2148 3.51587 11.6082 3.51587 12.0937V17.2267C3.51587 17.7122 3.90926 18.1056 4.39477 18.1056C4.88027 18.1056 5.27366 17.7122 5.27366 17.2267V12.9726H54.7263V39.1147H5.27366V21.3283C5.27366 20.8428 4.88027 20.4494 4.39477 20.4494Z" fill="#006480"/>
</g>
<defs>
<clipPath id="clip0">
<rect width="60" height="60" fill="white"/>
</clipPath>
</defs>
</svg>
