<svg width="60" height="60" viewBox="0 0 60 60" fill="none" xmlns="http://www.w3.org/2000/svg">
<g clip-path="url(#clip0)">
<path d="M59.4798 48.6734L43.0143 32.2082C42.0623 31.2561 40.9861 30.4362 39.8157 29.7711L38.2143 28.8611C37.1807 28.2737 36.2307 27.5497 35.3901 26.7091L34.1747 25.4937L34.5095 25.1589C35.2037 24.4646 35.2037 23.3351 34.5095 22.6409L32.5968 20.7282C31.9025 20.0339 30.7728 20.0341 30.0787 20.7282L27.3 23.5069L10.7955 7.00254C10.4522 6.6593 9.89575 6.6593 9.55239 7.00254C9.20915 7.34578 9.20915 7.9023 9.55239 8.24555L26.057 24.7499L24.7497 26.057L1.87251 3.18012L3.17974 1.87301L6.89376 5.5868C7.23688 5.93016 7.79341 5.93004 8.13677 5.5868C8.48001 5.24355 8.48001 4.68703 8.13665 4.34379L4.22634 0.433594C3.94685 0.153984 3.57513 0 3.17985 0C2.78446 0 2.41274 0.153984 2.13337 0.433477L0.433096 2.13363C-0.143936 2.71066 -0.143818 3.64969 0.433096 4.2266L23.5068 27.3L20.7281 30.0786C20.0339 30.7729 20.0339 31.9024 20.7281 32.5966L22.6407 34.5093C22.9879 34.8564 23.4439 35.0299 23.8998 35.0299C24.3557 35.0299 24.8116 34.8564 25.1588 34.5093L25.4936 34.1745L26.7091 35.3898C27.5498 36.2305 28.2738 37.1808 28.861 38.214L29.7711 39.8154C30.4363 40.9859 31.2562 42.062 32.2083 43.014L42.3322 53.1379C42.5039 53.3094 42.7289 53.3953 42.9538 53.3953C43.1786 53.3953 43.4036 53.3095 43.5753 53.1379C43.9186 52.7946 43.9186 52.2381 43.5753 51.8948L33.4513 41.771C32.6107 40.9305 31.8867 39.9803 31.2993 38.9469L30.3893 37.3455C29.7242 36.1753 28.9043 35.0991 27.9521 34.1469L26.7366 32.9316L29.3397 30.3285C29.683 29.9852 29.683 29.4287 29.3397 29.0855C28.9964 28.7422 28.44 28.7422 28.0966 29.0855L23.9157 33.2664C23.9083 33.2737 23.891 33.2737 23.8837 33.2664L21.9711 31.3538C21.9637 31.3464 21.9637 31.329 21.9711 31.3216V31.3538C21.9712 31.3536 21.9711 31.3538 21.9712 31.3536L31.3217 21.9711C31.3291 21.9638 31.3463 21.9636 31.3536 21.9711L33.2662 23.8837C33.2736 23.8911 33.2736 23.9085 33.2662 23.9159L30.759 26.4231C30.4158 26.7663 30.4158 27.3229 30.759 27.6661C31.1024 28.0093 31.6588 28.0093 32.0021 27.6661L32.9315 26.7367L34.147 27.9521C35.0989 28.9041 36.175 29.724 37.3456 30.3893L38.9471 31.2994C39.9805 31.8866 40.9306 32.6106 41.7712 33.4512L58.2366 49.9162C58.2454 49.9252 58.2454 49.9397 58.2366 49.9485L49.9488 58.2363C49.9399 58.2452 49.9254 58.2452 49.9167 58.2363L46.3586 54.6783C46.0154 54.335 45.459 54.335 45.1155 54.6783C44.7723 55.0215 44.7723 55.578 45.1155 55.9213L48.6737 59.4795C49.0208 59.8264 49.4768 60 49.9326 60C50.3886 60 50.8445 59.8264 51.1917 59.4793L59.4797 51.1914C60.1738 50.4972 60.1739 49.3677 59.4798 48.6734Z" fill="#006480"/>
<path d="M51.2531 53.0915L38.5023 40.3408C38.1589 39.9976 37.6025 39.9976 37.2591 40.3408C36.9159 40.684 36.9159 41.2406 37.2591 41.5838L50.01 54.3345C50.1817 54.5061 50.4067 54.592 50.6315 54.592C50.8564 54.592 51.0814 54.5062 51.2531 54.3345C51.5963 53.9913 51.5963 53.4347 51.2531 53.0915Z" fill="#006480"/>
<path d="M54.3346 50.0101L41.5838 37.2596C41.2405 36.9163 40.684 36.9163 40.3407 37.2596C39.9974 37.6028 39.9974 38.1593 40.3407 38.5026L53.0915 51.2532C53.2632 51.4247 53.4882 51.5106 53.7131 51.5106C53.938 51.5106 54.163 51.4248 54.3346 51.2532C54.6779 50.9099 54.6779 50.3534 54.3346 50.0101Z" fill="#006480"/>
</g>
<defs>
<clipPath id="clip0">
<rect width="60" height="60" fill="white"/>
</clipPath>
</defs>
</svg>
