<svg width="60" height="60" viewBox="0 0 60 60" fill="none" xmlns="http://www.w3.org/2000/svg">
<g clip-path="url(#clip0)">
<path d="M25.694 41.6203L22.4042 44.9336C22.3617 44.9763 22.313 44.9855 22.2796 44.9855H22.2794C22.2461 44.9855 22.1976 44.9766 22.155 44.9341L20.9331 43.7121C20.59 43.3688 20.0335 43.3689 19.6902 43.712C19.347 44.0552 19.347 44.6118 19.6902 44.9549L20.9122 46.177C21.2774 46.5422 21.7628 46.7433 22.2793 46.7433H22.2827C22.8004 46.7423 23.2865 46.5396 23.6515 46.1721L26.9415 42.8587C27.2834 42.5143 27.2814 41.9578 26.937 41.6159C26.5924 41.2739 26.0361 41.2759 25.694 41.6203ZM26.937 17.6871C26.5925 17.345 26.0361 17.347 25.694 17.6916L22.4042 21.0048C22.3617 21.0476 22.313 21.0566 22.2797 21.0566H22.2794C22.2461 21.0566 22.1976 21.0477 22.155 21.0053L20.9331 19.7832C20.59 19.44 20.0335 19.4399 19.6902 19.7831C19.347 20.1264 19.347 20.6829 19.6902 21.026L20.9122 22.2482C21.2774 22.6134 21.7628 22.8144 22.2794 22.8144H22.2829C22.8006 22.8135 23.2867 22.6107 23.6516 22.2432L26.9416 18.93C27.2834 18.5856 27.2814 18.0292 26.937 17.6871ZM26.937 29.6515C26.5925 29.3095 26.0361 29.3114 25.694 29.6559L22.4042 32.9692C22.3617 33.012 22.313 33.021 22.2797 33.021H22.2794C22.2461 33.021 22.1976 33.0121 22.155 32.9697L20.9331 31.7476C20.59 31.4043 20.0335 31.4044 19.6902 31.7475C19.347 32.0907 19.347 32.6473 19.6902 32.9904L20.9122 34.2125C21.2774 34.5778 21.7628 34.7788 22.2794 34.7788H22.2829C22.8006 34.7779 23.2867 34.5751 23.6516 34.2076L26.9416 30.8944C27.2834 30.55 27.2814 29.9936 26.937 29.6515ZM21.4277 16.7045H18.5629C17.4967 16.7045 16.6293 17.5719 16.6293 18.6381V24.9776C16.6293 26.0437 17.4967 26.9112 18.5629 26.9112H24.9024C25.9686 26.9112 26.836 26.0437 26.836 24.9776V22.7536C26.836 22.2681 26.4425 21.8747 25.9571 21.8747C25.4717 21.8747 25.0782 22.2681 25.0782 22.7536V24.9776C25.0782 25.0745 24.9993 25.1534 24.9024 25.1534H18.5629C18.466 25.1534 18.3871 25.0745 18.3871 24.9776V18.6381C18.3871 18.5412 18.466 18.4623 18.5629 18.4623H21.4277C21.9131 18.4623 22.3066 18.0689 22.3066 17.5834C22.3066 17.0979 21.9131 16.7045 21.4277 16.7045ZM48.3821 1.80469H44.3532C43.8678 1.80469 43.4743 2.19809 43.4743 2.68359C43.4743 3.1691 43.8678 3.5625 44.3532 3.5625H48.3821C49.8283 3.5625 51.0047 4.73906 51.0047 6.18516V55.6195C51.0047 57.0656 49.8282 58.2422 48.3821 58.2422H11.618C10.1718 58.2422 8.99536 57.0656 8.99536 55.6195V6.18516C8.99536 4.73906 10.1719 3.5625 11.618 3.5625H18.2746V5.30625H12.2016C11.3952 5.30625 10.7391 5.96238 10.7391 6.76863V42.9625C10.7391 43.448 11.1326 43.8414 11.618 43.8414C12.1034 43.8414 12.4969 43.448 12.4969 42.9625V7.06406H16.6731C16.5769 7.33711 16.524 7.63031 16.524 7.93582V10.3736C16.524 11.8236 17.7036 13.0032 19.1535 13.0032H40.8465C42.2964 13.0032 43.476 11.8236 43.476 10.3736V7.93594C43.476 7.63043 43.423 7.33711 43.3268 7.06418H47.5031V45.5989H42.9422C40.527 45.5989 38.562 47.5642 38.562 49.9798V54.5415H12.4969V46.4782C12.4969 45.9927 12.1034 45.5993 11.618 45.5993C11.1326 45.5993 10.7391 45.9927 10.7391 46.4782V54.8368C10.7391 55.6432 11.3952 56.2992 12.2016 56.2992H39.4407C39.6743 56.2996 39.8977 56.2051 40.0622 56.0418L40.0643 56.0396L49.0036 47.0992C49.1532 46.9487 49.2447 46.7455 49.2583 46.5339C49.2588 46.526 49.2611 6.78855 49.2611 6.76863C49.2611 5.96227 48.605 5.30625 47.7986 5.30625H41.7256V2.86793C41.7255 1.2866 40.4391 0 38.8579 0H21.1422C19.9366 0 18.9031 0.748359 18.4798 1.80469H11.618C9.20255 1.80469 7.23755 3.7698 7.23755 6.18516V55.6195C7.23755 58.0349 9.20267 60 11.618 60H48.3821C50.7975 60 52.7625 58.0349 52.7625 55.6195V6.18516C52.7625 3.7698 50.7975 1.80469 48.3821 1.80469ZM40.3199 53.2979V49.9798C40.3199 48.5334 41.4964 47.3568 42.9424 47.3568H46.2603L40.3199 53.2979ZM20.0324 2.86793C20.0324 2.25574 20.5302 1.75781 21.1422 1.75781H38.8579C39.4699 1.75781 39.9677 2.25574 39.9677 2.86793V6.09305C39.9677 6.70523 39.4699 7.20316 38.8579 7.20316H21.1422C20.5302 7.20316 20.0324 6.70523 20.0324 6.09305V2.86793ZM18.2818 7.93594C18.2818 7.6909 18.3836 7.46953 18.5468 7.31098C19.0056 8.28492 19.9962 8.96086 21.1422 8.96086H38.8579C40.0038 8.96086 40.9945 8.28492 41.4533 7.31098C41.6165 7.46953 41.7183 7.6909 41.7183 7.93594V10.3737C41.7183 10.8545 41.3273 11.2455 40.8466 11.2455H19.1535C18.6728 11.2455 18.2818 10.8544 18.2818 10.3737V7.93594ZM16.6293 36.942C16.6293 38.0081 17.4967 38.8755 18.5629 38.8755H24.9024C25.9686 38.8755 26.836 38.0081 26.836 36.942V34.718C26.836 34.2325 26.4425 33.8391 25.9571 33.8391C25.4717 33.8391 25.0782 34.2325 25.0782 34.718V36.942C25.0782 37.0389 24.9993 37.1177 24.9024 37.1177H18.5629C18.466 37.1177 18.3871 37.0389 18.3871 36.942V30.6025C18.3871 30.5055 18.466 30.4267 18.5629 30.4267H21.4277C21.9131 30.4267 22.3066 30.0333 22.3066 29.5478C22.3066 29.0623 21.9131 28.6689 21.4277 28.6689H18.5629C17.4967 28.6689 16.6293 29.5363 16.6293 30.6025V36.942ZM29.9561 42.3912H42.4919C42.9773 42.3912 43.3708 41.9978 43.3708 41.5123C43.3708 41.0268 42.9773 40.6334 42.4919 40.6334H29.9561C29.4707 40.6334 29.0772 41.0268 29.0772 41.5123C29.0772 41.9978 29.4707 42.3912 29.9561 42.3912ZM16.6293 48.9063C16.6293 49.9725 17.4967 50.8399 18.5629 50.8399H24.9024C25.9686 50.8399 26.836 49.9725 26.836 48.9063V46.6825C26.836 46.197 26.4425 45.8036 25.9571 45.8036C25.4717 45.8036 25.0782 46.197 25.0782 46.6825V48.9063C25.0782 49.0032 24.9993 49.0821 24.9024 49.0821H18.5629C18.466 49.0821 18.3871 49.0032 18.3871 48.9063V42.567C18.3871 42.47 18.466 42.3912 18.5629 42.3912H21.4277C21.9131 42.3912 22.3066 41.9978 22.3066 41.5123C22.3066 41.0268 21.9131 40.6334 21.4277 40.6334H18.5629C17.4967 40.6334 16.6293 41.5008 16.6293 42.567V48.9063ZM29.9561 45.9068H37.2184C37.7038 45.9068 38.0973 45.5134 38.0973 45.0279C38.0973 44.5424 37.7038 44.149 37.2184 44.149H29.9561C29.4707 44.149 29.0772 44.5424 29.0772 45.0279C29.0772 45.5134 29.4707 45.9068 29.9561 45.9068ZM29.9561 33.9424H37.2184C37.7038 33.9424 38.0973 33.549 38.0973 33.0635C38.0973 32.578 37.7038 32.1846 37.2184 32.1846H29.9561C29.4707 32.1846 29.0772 32.578 29.0772 33.0635C29.0772 33.549 29.4707 33.9424 29.9561 33.9424ZM29.9561 30.4268H42.4919C42.9773 30.4268 43.3708 30.0334 43.3708 29.5479C43.3708 29.0624 42.9773 28.669 42.4919 28.669H29.9561C29.4707 28.669 29.0772 29.0624 29.0772 29.5479C29.0772 30.0334 29.4707 30.4268 29.9561 30.4268ZM29.9561 21.9779H42.4919C42.9773 21.9779 43.3708 21.5845 43.3708 21.099C43.3708 20.6135 42.9773 20.2201 42.4919 20.2201H29.9561C29.4707 20.2201 29.0772 20.6135 29.0772 21.099C29.0772 21.5845 29.4707 21.9779 29.9561 21.9779ZM29.9561 18.4623H42.4919C42.9773 18.4623 43.3708 18.0689 43.3708 17.5834C43.3708 17.0979 42.9773 16.7045 42.4919 16.7045H29.9561C29.4707 16.7045 29.0772 17.0979 29.0772 17.5834C29.0772 18.0689 29.4707 18.4623 29.9561 18.4623Z" fill="#006480"/>
</g>
<defs>
<clipPath id="clip0">
<rect width="60" height="60" fill="white"/>
</clipPath>
</defs>
</svg>
