<?xml version="1.0" standalone="no"?>
<!DOCTYPE svg PUBLIC "-//W3C//DTD SVG 20010904//EN"
 "http://www.w3.org/TR/2001/REC-SVG-20010904/DTD/svg10.dtd">
<svg version="1.0" xmlns="http://www.w3.org/2000/svg"
 width="700.000000pt" height="700.000000pt" viewBox="0 0 700.000000 700.000000"
 preserveAspectRatio="xMidYMid meet">
<metadata>
Created by potrace 1.11, written by Peter Selinger 2001-2013
</metadata>
<g transform="translate(0.000000,700.000000) scale(0.100000,-0.100000)"
fill="#000000" stroke="none">
<path d="M3278 6995 c-1 -1 -42 -5 -89 -9 -47 -4 -95 -8 -105 -10 -10 -2 -45
-7 -78 -11 -140 -17 -359 -65 -531 -117 -203 -61 -499 -189 -705 -303 -99 -55
-305 -194 -421 -284 -422 -330 -766 -755 -1000 -1238 -32 -68 -59 -125 -59
-127 0 -3 -11 -29 -24 -58 -121 -268 -221 -681 -254 -1043 -14 -157 -6 -604
13 -703 1 -9 6 -42 9 -72 7 -62 12 -94 26 -165 6 -27 12 -59 14 -71 60 -312
212 -714 383 -1013 214 -373 461 -665 829 -981 90 -78 300 -223 449 -312 365
-217 859 -389 1270 -443 22 -2 56 -7 75 -10 186 -26 698 -27 838 0 16 3 104
15 147 20 61 8 206 40 322 70 292 78 593 199 827 334 49 28 91 51 93 51 2 0 9
5 16 10 7 6 62 43 124 84 199 132 344 251 527 432 83 82 201 212 256 284 19
25 38 50 43 55 162 201 362 548 468 812 84 208 185 555 204 703 6 44 17 107
20 120 2 8 7 47 11 85 3 39 8 84 11 100 8 56 10 539 2 605 -4 36 -10 90 -13
120 -8 73 -12 103 -26 180 -6 36 -13 79 -16 95 -22 125 -125 481 -169 580 -7
17 -32 75 -55 130 -219 523 -630 1044 -1105 1401 -76 58 -190 137 -227 159 -9
5 -48 29 -85 51 -91 56 -304 166 -384 199 -35 14 -78 32 -94 40 -17 8 -64 26
-105 40 -41 14 -82 29 -90 32 -20 8 -19 8 -155 47 -100 30 -192 52 -340 82
-11 2 -38 6 -60 9 -22 3 -51 7 -65 10 -13 2 -52 7 -86 11 -33 3 -74 8 -90 10
-32 5 -540 14 -546 9z m2052 -1684 c148 -55 241 -146 301 -296 l24 -60 2
-1200 c2 -1305 4 -1247 -54 -1362 -51 -101 -168 -205 -265 -234 -18 -6 -42
-13 -53 -17 -11 -3 -288 -8 -616 -9 l-596 -4 1 -132 1 -132 311 -5 311 -5 36
-28 c90 -68 103 -192 29 -270 -61 -65 28 -60 -1247 -62 -1254 -1 -1210 -3
-1269 53 -74 69 -73 197 1 264 49 44 78 48 385 48 l294 0 0 135 0 135 -575 1
c-317 1 -588 3 -602 4 -14 2 -52 13 -84 24 -145 51 -247 157 -299 311 l-24 73
0 1177 c-1 1294 -3 1244 60 1362 62 117 185 212 314 242 49 11 367 13 1804 12
l1745 -1 65 -24z"/>
<path d="M1796 4903 c-13 -7 -25 -23 -28 -35 -2 -13 -3 -530 -3 -1150 0 -1065
1 -1129 18 -1145 17 -17 104 -18 1714 -18 1580 -1 1697 0 1717 16 l21 17 0
1144 c0 1102 -1 1146 -19 1163 -18 18 -76 19 -1708 19 -1309 1 -1694 -2 -1712
-11z"/>
</g>
</svg>
