<svg width="50" height="50" viewBox="0 0 50 50" fill="none" xmlns="http://www.w3.org/2000/svg">
<g clip-path="url(#clip0)">
<path d="M36.9592 14.9023H13.0404C12.8017 14.9023 12.608 15.096 12.608 15.3347V31.3285C12.608 31.5672 12.8017 31.7608 13.0404 31.7608H36.9592C37.1979 31.7608 37.3915 31.5672 37.3915 31.3285V15.3345C37.3915 15.096 37.1979 14.9023 36.9592 14.9023Z" fill="#006480"/>
<path d="M25.0016 0C11.1951 0 0.00244141 11.1935 0.00244141 24.9995C0.00244141 38.8055 11.1951 50 25.0016 50C38.8081 50 50.0021 38.8062 50.0021 24.9995C50.0021 11.1928 38.8081 0 25.0016 0ZM40.4196 31.3283C40.4196 33.238 38.8713 34.7865 36.9614 34.7865H29.1041V36.7178H33.0709C33.7873 36.7178 34.3678 37.2983 34.3678 38.0147C34.3678 38.731 33.7873 39.3115 33.0709 39.3115H16.9333C16.2169 39.3115 15.6364 38.731 15.6364 38.0147C15.6364 37.2983 16.2169 36.7178 16.9333 36.7178H20.9001V34.7865H13.0426C11.1329 34.7865 9.58444 33.2382 9.58444 31.3283V15.3345C9.58444 13.4248 11.1328 11.8763 13.0426 11.8763H36.9614C38.8711 11.8763 40.4196 13.4247 40.4196 15.3345V31.3283Z" fill="#006480"/>
</g>
<defs>
<clipPath id="clip0">
<rect width="50" height="50" fill="white"/>
</clipPath>
</defs>
</svg>
